<svg width="41" height="41" viewBox="0 0 41 41" fill="none" xmlns="http://www.w3.org/2000/svg">
<path d="M10.281 12.6284V12.6284C11.8606 12.6284 13.3375 13.4115 14.2239 14.719L15.0595 15.9517L16.1859 17.6133M28.9273 25.9214H24.0024C22.6821 25.9214 21.4142 25.4044 20.4703 24.4812L19.5418 23.5729M28.9273 25.9214L25.4351 29.4662M28.9273 25.9214L25.4351 22.3766" stroke="#898989" stroke-width="2.02054" stroke-linecap="round" stroke-linejoin="round"/>
<path d="M10.281 27.9508V27.9508C11.8645 27.9508 13.3491 27.1805 14.2608 25.8858L20.4337 17.1199C21.3798 15.7763 22.9204 14.9769 24.5637 14.9769H28.9273M28.9273 14.9769L25.435 11.4321M28.9273 14.9769L25.435 18.5217" stroke="#898989" stroke-width="2.02054" stroke-linecap="round" stroke-linejoin="round"/>
</svg>
